<svg width="112" height="25" viewBox="0 0 112 25" fill="none" xmlns="http://www.w3.org/2000/svg">
<path d="M15.589 20.27H4.943C3.464 20.27 2.27 19.779 1.362 18.798C0.455 17.816 0 16.6 0 15.143V10.207C0 8.75199 0.46 7.56099 1.379 6.63299C2.296 5.70499 3.485 5.23999 4.943 5.23999H15.589V7.28299H4.935C4.089 7.28299 3.402 7.60899 2.873 8.26299C2.344 8.91699 2.081 9.67499 2.081 10.54V15C2.081 15.844 2.345 16.592 2.873 17.246C3.401 17.9 4.089 18.226 4.935 18.226H15.589V20.27Z" fill="#859088"/>
<path d="M31.503 7.20496H21.862C21.038 7.20496 20.355 7.53296 19.817 8.18796C19.277 8.84296 19.008 9.59296 19.008 10.439V20.269H16.965V10.292C16.965 8.85596 17.428 7.64396 18.356 6.65096C19.284 5.65796 20.462 5.16296 21.895 5.16296H31.502L31.503 7.20496Z" fill="#859088"/>
<path d="M47.724 10.5739C47.724 12.0099 47.248 13.2069 46.298 14.1659C45.349 15.1269 44.146 15.6049 42.689 15.6049H37.718L37.687 13.5639H42.699C43.65 13.5639 44.402 13.2359 44.952 12.5809C45.438 11.9689 45.681 11.1759 45.681 10.2029C45.681 9.31594 45.406 8.57594 44.856 7.98394C44.306 7.39294 43.586 7.10694 42.699 7.12894L35.527 7.20494C34.679 7.20494 34.004 7.50794 33.496 8.11094C32.988 8.71394 32.734 9.43894 32.734 10.2869V14.9869C32.734 15.8339 32.998 16.5859 33.526 17.2419C34.054 17.8979 34.742 18.2259 35.588 18.2259H46.242V20.2689H35.595C34.116 20.2689 32.923 19.7769 32.015 18.7959C31.107 17.8149 30.653 16.5949 30.653 15.1379V10.1989C30.653 8.71994 31.096 7.51094 31.983 6.57194C32.869 5.63294 34.052 5.16394 35.531 5.16394H42.846C44.408 5.16394 45.622 5.68994 46.489 6.74594C47.312 7.71594 47.724 8.99194 47.724 10.5739Z" fill="#859088"/>
<path d="M64.977 10.2929V20.2699H62.934V11.7139H52.977C52.022 11.7139 51.285 12.0349 50.765 12.6769C50.245 13.3189 49.986 14.1309 49.986 15.1149C49.986 15.9489 50.277 16.6759 50.859 17.2959C51.441 17.9159 52.144 18.2269 52.97 18.2269H60.047V20.2699H52.982C51.419 20.2699 50.172 19.7289 49.244 18.6469C48.377 17.6269 47.944 16.3239 47.944 14.7329C47.944 13.2899 48.433 12.0869 49.411 11.1199C50.389 10.1549 51.591 9.67294 53.015 9.67294H62.933C62.785 8.95594 62.454 8.36594 61.943 7.90194C61.433 7.43794 60.826 7.20594 60.125 7.20594H50.416V5.16394H60.04C61.474 5.16394 62.657 5.65894 63.585 6.65194C64.512 7.64494 64.977 8.85694 64.977 10.2929Z" fill="#859088"/>
<path d="M73.643 20.27H71.711C70.275 20.27 69.092 19.772 68.162 18.778C67.232 17.785 66.767 16.569 66.767 15.131V0H68.849V14.987C68.849 15.834 69.113 16.586 69.642 17.242C70.171 17.898 70.859 18.226 71.706 18.226H73.642L73.643 20.27Z" fill="#88B94E"/>
<path d="M76.703 3.23606H74.66V1.23206H76.703V3.23606ZM76.703 20.2701H74.66V5.56106H76.703V20.2701Z" fill="#88B94E"/>
<path d="M94.48 6.62698L87.193 20.27H85.324L78.004 6.66998L78.035 5.35498H79.572L86.234 17.486L92.893 5.35498H94.449L94.48 6.62698Z" fill="#88B94E"/>
<path d="M112 10.5739C112 12.0099 111.525 13.2069 110.574 14.1659C109.625 15.1269 108.422 15.6049 106.967 15.6049H101.994L101.963 13.5639H106.975C107.926 13.5639 108.678 13.2359 109.229 12.5809C109.715 11.9689 109.958 11.1759 109.958 10.2029C109.958 9.31594 109.683 8.57594 109.134 7.98394C108.583 7.39294 107.864 7.10694 106.976 7.12894L99.804 7.20494C98.958 7.20494 98.281 7.50794 97.773 8.11094C97.265 8.71394 97.011 9.43894 97.011 10.2869V14.9869C97.011 15.8339 97.275 16.5859 97.804 17.2419C98.331 17.8979 99.019 18.2259 99.865 18.2259H110.519V20.2689H99.871C98.392 20.2689 97.199 19.7769 96.291 18.7959C95.383 17.8149 94.93 16.5949 94.93 15.1379V10.1989C94.93 8.71994 95.371 7.51094 96.26 6.57194C97.147 5.63294 98.328 5.16394 99.807 5.16394H107.123C108.684 5.16394 109.898 5.68994 110.766 6.74594C111.588 7.71594 112 8.99194 112 10.5739Z" fill="#88B94E"/>
</svg>
